<?xml version="1.0" encoding="UTF-8"?> <svg xmlns="http://www.w3.org/2000/svg" xmlns:xlink="http://www.w3.org/1999/xlink" width="488" height="144" overflow="hidden"><defs><clipPath id="clip0"><rect x="396" y="288" width="488" height="144"></rect></clipPath><clipPath id="clip1"><rect x="397" y="288" width="486" height="144"></rect></clipPath><clipPath id="clip2"><rect x="397" y="288" width="486" height="144"></rect></clipPath><clipPath id="clip3"><rect x="397" y="288" width="486" height="144"></rect></clipPath></defs><g clip-path="url(#clip0)" transform="translate(-396 -288)"><g clip-path="url(#clip1)"><g clip-path="url(#clip2)"><g clip-path="url(#clip3)"><path d="M26.5623 1.44137 54.6804 1.44137 54.6804 57.1971C54.6804 69.1856 51.7519 78.0168 45.8949 83.7136 40.0379 89.3876 30.9322 92.2474 18.5776 92.2474 15.3517 92.2474 12.1944 92.0415 9.08289 91.6526 5.92562 91.2408 2.90561 90.6688 0 89.9138L0 70.4897C1.48712 70.993 2.97425 71.3591 4.48425 71.6107 5.99425 71.8624 7.48138 71.9997 8.9685 71.9997 15.3059 71.9997 19.8131 70.4439 22.5128 67.3553 25.2125 64.2438 26.5623 58.8901 26.5623 51.2715L26.5623 1.44137Z" fill="#393939" fill-rule="nonzero" fill-opacity="1" transform="matrix(1.0077 0 0 1 397 288.446)"></path><path d="M178.386 1.44137 206.504 1.44137 206.504 53.0789C206.504 60.6518 207.831 66.1198 210.508 69.5059 213.185 72.8691 217.463 74.5621 223.343 74.5621 229.383 74.5621 233.936 72.7547 237.002 69.1169 240.068 65.5021 241.6 60.1484 241.6 53.0789L241.6 1.44137 268.369 1.44137 268.369 53.0789C268.369 66.1427 264.617 75.9348 257.135 82.4553 249.631 88.9758 238.375 92.2246 223.343 92.2246 208.472 92.2246 197.261 88.9529 189.711 82.3867 182.161 75.8204 178.409 66.0512 178.409 53.0789L178.409 1.44137Z" fill="#393939" fill-rule="nonzero" fill-opacity="1" transform="matrix(1.0077 0 0 1 397 288.446)"></path><path d="M317.352 1.44137 351.236 1.44137 391.136 90.1883 361.097 90.1883 353.615 71.4048 313.051 71.4048 305.204 90.1883 277.383 90.1883 317.352 1.44137ZM333.733 21.2316 320.075 54.5202 346.935 54.5202 333.733 21.2316Z" fill="#393939" fill-rule="nonzero" fill-opacity="1" transform="matrix(1.0077 0 0 1 397 288.446)"></path><path d="M377.409 1.44137 406.786 1.44137 430.305 70.5126 453.527 1.44137 482.309 1.44137 446.572 90.1883 411.338 90.1883 377.409 1.44137Z" fill="#393939" fill-rule="nonzero" fill-opacity="1" transform="matrix(1.0077 0 0 1 397 288.446)"></path><path d="M96.8918 68.5678C97.6468 68.1103 98.4018 67.6298 99.1568 67.1722 93.2312 62.0931 89.4791 54.5889 89.4791 46.1695 89.4791 30.9093 101.857 18.5319 117.094 18.5319 125.33 18.5319 132.697 22.1696 137.776 27.8893 137.891 27.7063 138.005 27.5232 138.119 27.3402 140.43 23.222 142.649 19.1953 144.343 15.1915 145.098 13.6129 145.669 12.0114 146.287 10.4556 138.348 3.91228 128.19 0 117.117 0 91.6297 0 70.993 20.6596 70.993 46.1695 70.993 57.5403 75.1112 67.9501 81.9291 76.0035 82.8671 75.6374 83.828 75.2485 84.7661 74.8138 88.7699 73.075 92.7965 70.8786 96.8918 68.5678Z" fill="#E1B133" fill-rule="nonzero" fill-opacity="1" transform="matrix(1.0077 0 0 1 397 288.446)"></path><path d="M151.206 15.0543C150.977 15.855 150.726 16.6787 150.451 17.4794 149.056 21.895 147.18 26.425 144.937 31.0008 144.182 32.4651 143.382 33.9064 142.558 35.3707 143.954 38.6881 144.731 42.3258 144.731 46.1466 144.731 61.4068 132.377 73.7842 117.117 73.7842 113.525 73.7842 110.116 73.075 106.959 71.8395 104.854 73.0979 102.726 74.2876 100.598 75.3857 96.0453 77.6279 91.4924 79.5039 87.0768 80.8995 86.9853 80.9224 86.9167 80.9453 86.8252 80.9682 94.9243 88.0377 105.517 92.3161 117.094 92.3161 142.581 92.3161 163.218 71.6565 163.218 46.1466 163.24 34.181 158.688 23.2678 151.206 15.0543Z" fill="#E1B133" fill-rule="nonzero" fill-opacity="1" transform="matrix(1.0077 0 0 1 397 288.446)"></path><path d="M10.2726 136.335C6.90941 136.335 4.36986 135.511 2.60819 133.864 0.869395 132.217 0 129.814 0 126.657L0 109.841 3.50046 109.841 3.50046 126.794C3.50046 128.899 4.07243 130.501 5.21637 131.599 6.36031 132.697 8.05335 133.246 10.2726 133.246 12.5147 133.246 14.2078 132.697 15.3517 131.599 16.5185 130.501 17.0905 128.899 17.0905 126.794L17.0905 109.841 20.5909 109.841 20.5909 126.657C20.5909 129.814 19.6987 132.217 17.937 133.864 16.1753 135.511 13.6358 136.335 10.2726 136.335Z" fill="#393939" fill-rule="nonzero" fill-opacity="1" transform="matrix(1.0077 0 0 1 397 288.446)"></path><path d="M27.0657 136.06 27.0657 117.346 30.5661 117.346 30.5661 136.06 27.0657 136.06ZM40.3582 136.06 40.3582 124.69C40.3582 123.202 39.9236 122.059 39.0542 121.235 38.1848 120.411 36.9493 119.999 35.3707 119.999 33.8378 119.999 32.6481 120.366 31.8244 121.098 30.9779 121.83 30.5661 122.836 30.5661 124.163L30.1314 120.549C30.8407 119.336 31.7787 118.444 32.9226 117.872 34.0666 117.3 35.3478 117.025 36.7205 117.025 38.9855 117.025 40.7472 117.689 41.9827 119.016 43.2181 120.343 43.8587 122.219 43.8587 124.644L43.8587 136.038 40.3582 136.038Z" fill="#393939" fill-rule="nonzero" fill-opacity="1" transform="matrix(1.0077 0 0 1 397 288.446)"></path><path d="M50.1275 136.06 50.1275 117.346 53.628 117.346 53.628 136.06 50.1275 136.06ZM62.9168 136.06 62.9168 124.712C62.9168 123.225 62.5278 122.059 61.7271 121.258 60.9263 120.434 59.7824 120.022 58.2953 120.022 56.8081 120.022 55.6413 120.388 54.8405 121.121 54.0398 121.853 53.628 122.882 53.628 124.209L53.1933 120.594C53.8796 119.382 54.7719 118.467 55.8701 117.917 56.9683 117.346 58.1809 117.071 59.5307 117.071 61.7271 117.071 63.4201 117.734 64.6098 119.061 65.8224 120.388 66.4172 122.264 66.4172 124.69L66.4172 136.06 62.9168 136.06ZM75.7289 136.06 75.7289 124.712C75.7289 123.225 75.3171 122.059 74.4935 121.258 73.6698 120.434 72.503 120.022 71.0159 120.022 69.5516 120.022 68.4306 120.411 67.6298 121.212 66.8291 122.013 66.4401 123.134 66.4401 124.575L65.4106 121.418C66.0741 120.022 66.9663 118.97 68.1103 118.215 69.2542 117.46 70.5583 117.071 72.0683 117.071 74.3562 117.071 76.1179 117.734 77.3762 119.061 78.6345 120.388 79.2523 122.264 79.2523 124.69L79.2523 136.06 75.7289 136.06Z" fill="#393939" fill-rule="nonzero" fill-opacity="1" transform="matrix(1.0077 0 0 1 397 288.446)"></path><path d="M92.1788 136.335C89.685 136.335 87.7632 135.854 86.4591 134.871 85.1321 133.887 84.4915 132.446 84.4915 130.547 84.4915 128.739 85.0864 127.366 86.2989 126.406 87.5115 125.445 89.2503 124.987 91.5611 124.987L98.0129 124.987 98.2874 127.687 91.5839 127.687C90.3714 127.687 89.4562 127.938 88.8156 128.419 88.175 128.899 87.8776 129.609 87.8776 130.547 87.8776 131.553 88.2894 132.308 89.0902 132.834 89.9138 133.361 91.0806 133.612 92.6593 133.612 94.3294 133.612 95.6335 133.452 96.5029 133.132 97.3952 132.812 97.8299 132.354 97.8299 131.736L98.2646 134.276C97.8756 134.733 97.3952 135.122 96.8003 135.42 96.2055 135.717 95.5191 135.946 94.7641 136.106 93.9405 136.243 93.0939 136.335 92.1788 136.335ZM97.807 136.06 97.807 124.186C97.807 122.814 97.3952 121.761 96.5715 120.983 95.7479 120.228 94.5811 119.839 93.0939 119.839 91.1721 119.839 89.502 120.32 88.0606 121.326L85.4982 119.771C86.2989 118.924 87.3285 118.261 88.6326 117.78 89.9367 117.3 91.378 117.071 92.9567 117.071 95.5877 117.071 97.6011 117.666 99.0424 118.901 100.484 120.114 101.193 121.83 101.193 124.026L101.193 136.06 97.807 136.06Z" fill="#393939" fill-rule="nonzero" fill-opacity="1" transform="matrix(1.0077 0 0 1 397 288.446)"></path><path d="M107.462 136.06 107.462 117.346 110.962 117.346 110.962 136.06 107.462 136.06ZM120.754 136.06 120.754 124.69C120.754 123.202 120.32 122.059 119.45 121.235 118.581 120.411 117.346 119.999 115.767 119.999 114.234 119.999 113.044 120.366 112.221 121.098 111.374 121.83 110.962 122.836 110.962 124.163L110.528 120.549C111.237 119.336 112.175 118.444 113.319 117.872 114.463 117.3 115.744 117.025 117.117 117.025 119.382 117.025 121.143 117.689 122.379 119.016 123.614 120.343 124.255 122.219 124.255 124.644L124.255 136.038 120.754 136.038Z" fill="#393939" fill-rule="nonzero" fill-opacity="1" transform="matrix(1.0077 0 0 1 397 288.446)"></path><path d="M130.524 136.06 130.524 117.346 134.024 117.346 134.024 136.06 130.524 136.06ZM143.839 136.06 143.839 124.69C143.839 123.202 143.404 122.059 142.535 121.235 141.666 120.411 140.43 119.999 138.852 119.999 137.319 119.999 136.129 120.366 135.305 121.098 134.459 121.83 134.047 122.836 134.047 124.163L133.612 120.549C134.322 119.336 135.26 118.444 136.404 117.872 137.548 117.3 138.829 117.025 140.201 117.025 142.466 117.025 144.228 117.689 145.464 119.016 146.699 120.343 147.34 122.219 147.34 124.644L147.34 136.038 143.839 136.038Z" fill="#393939" fill-rule="nonzero" fill-opacity="1" transform="matrix(1.0077 0 0 1 397 288.446)"></path><path d="M162.348 136.335C159.42 136.335 157.178 135.603 155.576 134.161 153.975 132.72 153.174 130.638 153.174 127.961L153.174 125.834C153.174 123.042 153.929 120.892 155.462 119.359 156.995 117.826 159.168 117.071 161.982 117.071 164.613 117.071 166.649 117.872 168.091 119.496 169.532 121.121 170.264 123.386 170.264 126.314L170.264 127.984 155.645 127.984 155.645 125.353 166.947 125.353 166.947 125.262C166.901 123.569 166.443 122.242 165.574 121.326 164.705 120.388 163.515 119.931 161.982 119.931 160.243 119.931 158.871 120.434 157.91 121.418 156.949 122.402 156.468 123.82 156.468 125.628L156.468 128.007C156.468 129.723 156.972 131.05 158.001 131.988 159.031 132.903 160.472 133.384 162.325 133.384 164.224 133.384 165.894 132.743 167.359 131.485L169.692 133.544C168.663 134.436 167.496 135.122 166.215 135.603 164.956 136.083 163.652 136.335 162.348 136.335Z" fill="#393939" fill-rule="nonzero" fill-opacity="1" transform="matrix(1.0077 0 0 1 397 288.446)"></path><path d="M182.55 136.335C180.262 136.335 178.478 135.671 177.219 134.344 175.961 133.018 175.32 131.164 175.32 128.762L175.32 124.69C175.32 122.264 175.938 120.388 177.151 119.061 178.363 117.734 180.102 117.071 182.344 117.071 183.717 117.071 184.975 117.346 186.096 117.872 187.24 118.398 188.133 119.267 188.819 120.434L188.384 124.141C188.384 123.34 188.201 122.608 187.835 121.967 187.469 121.326 186.92 120.8 186.234 120.434 185.524 120.045 184.678 119.862 183.671 119.862 182.115 119.862 180.903 120.297 180.056 121.143 179.21 121.99 178.775 123.202 178.775 124.758L178.775 128.808C178.775 130.341 179.21 131.53 180.056 132.354 180.903 133.201 182.115 133.612 183.671 133.612 184.678 133.612 185.524 133.406 186.234 133.018 186.943 132.629 187.469 132.079 187.835 131.439 188.201 130.775 188.384 130.043 188.384 129.243L188.659 133.178C188.201 134.207 187.446 134.985 186.394 135.557 185.341 136.129 184.106 136.335 182.55 136.335ZM188.43 136.06 188.43 109.841 191.93 109.841 191.93 136.06 188.43 136.06Z" fill="#393939" fill-rule="nonzero" fill-opacity="1" transform="matrix(1.0077 0 0 1 397 288.446)"></path><path d="M203.027 136.06 213.826 109.841 217.326 109.841 228.125 136.06 224.304 136.06 215.587 113.731 206.847 136.06 203.027 136.06ZM207.991 129.997 207.991 127.046 223.412 127.046 223.412 129.997 207.991 129.997Z" fill="#393939" fill-rule="nonzero" fill-opacity="1" transform="matrix(1.0077 0 0 1 397 288.446)"></path><path d="M232.472 112.976 232.472 109.841 235.972 109.841 235.972 112.976 232.472 112.976ZM232.472 136.06 232.472 117.346 235.972 117.346 235.972 136.06 232.472 136.06Z" fill="#393939" fill-rule="nonzero" fill-opacity="1" transform="matrix(1.0077 0 0 1 397 288.446)"></path><path d="M242.538 136.06 242.538 117.346 246.039 117.346 246.039 136.06 242.538 136.06ZM254.435 121.235C253.635 120.434 252.422 120.022 250.843 120.022 249.288 120.022 248.098 120.388 247.274 121.121 246.451 121.853 246.016 122.882 246.016 124.186L245.581 120.571C246.291 119.473 247.183 118.604 248.327 117.986 249.448 117.368 250.706 117.048 252.079 117.048 253.978 117.048 255.534 117.529 256.7 118.512L254.435 121.235Z" fill="#393939" fill-rule="nonzero" fill-opacity="1" transform="matrix(1.0077 0 0 1 397 288.446)"></path><path d="M267.797 136.335C264.845 136.335 262.58 135.649 261.047 134.253 259.515 132.857 258.737 130.844 258.737 128.19L258.737 125.101C258.737 122.47 259.515 120.48 261.047 119.107 262.58 117.734 264.845 117.048 267.797 117.048 269.467 117.048 270.954 117.3 272.235 117.826 273.516 118.329 274.569 119.084 275.37 120.045L272.807 122.081C271.503 120.686 269.833 119.999 267.842 119.999 266.012 119.999 264.617 120.434 263.678 121.281 262.718 122.127 262.237 123.408 262.237 125.079L262.237 128.167C262.237 129.929 262.718 131.256 263.678 132.171 264.639 133.086 266.012 133.521 267.842 133.521 269.902 133.521 271.595 132.834 272.944 131.439L275.37 133.361C274.569 134.322 273.516 135.054 272.212 135.557 270.931 136.083 269.467 136.335 267.797 136.335Z" fill="#393939" fill-rule="nonzero" fill-opacity="1" transform="matrix(1.0077 0 0 1 397 288.446)"></path><path d="M279.396 136.06 279.396 117.346 282.897 117.346 282.897 136.06 279.396 136.06ZM291.316 121.235C290.515 120.434 289.303 120.022 287.724 120.022 286.168 120.022 285.002 120.388 284.155 121.121 283.309 121.853 282.897 122.882 282.897 124.186L282.485 120.571C283.171 119.473 284.086 118.604 285.23 117.986 286.351 117.368 287.61 117.048 288.982 117.048 290.881 117.048 292.437 117.529 293.604 118.512L291.316 121.235Z" fill="#393939" fill-rule="nonzero" fill-opacity="1" transform="matrix(1.0077 0 0 1 397 288.446)"></path><path d="M303.716 136.335C301.223 136.335 299.324 135.854 297.997 134.871 296.67 133.887 296.029 132.446 296.029 130.547 296.029 128.739 296.624 127.366 297.837 126.406 299.049 125.445 300.788 124.987 303.076 124.987L309.528 124.987 309.802 127.687 303.076 127.687C301.863 127.687 300.948 127.938 300.33 128.419 299.69 128.899 299.369 129.609 299.369 130.547 299.369 131.553 299.781 132.308 300.582 132.834 301.383 133.361 302.573 133.612 304.128 133.612 305.821 133.612 307.103 133.452 307.972 133.132 308.864 132.812 309.299 132.354 309.299 131.736L309.711 134.276C309.322 134.733 308.818 135.122 308.246 135.42 307.652 135.717 306.965 135.946 306.21 136.106 305.478 136.243 304.632 136.335 303.716 136.335ZM309.345 136.06 309.345 124.186C309.345 122.814 308.933 121.761 308.109 120.983 307.286 120.228 306.119 119.839 304.632 119.839 302.71 119.839 301.04 120.32 299.598 121.326L297.036 119.771C297.837 118.924 298.866 118.261 300.17 117.78 301.474 117.3 302.916 117.071 304.494 117.071 307.125 117.071 309.139 117.666 310.58 118.901 312.021 120.114 312.731 121.83 312.731 124.026L312.731 136.06 309.345 136.06Z" fill="#393939" fill-rule="nonzero" fill-opacity="1" transform="matrix(1.0077 0 0 1 397 288.446)"></path><path d="M317.398 120.022 317.398 117.346 327.854 117.346 327.854 120.022 317.398 120.022ZM319.617 136.06 319.617 114.806C319.617 113.136 320.006 111.9 320.807 111.077 321.585 110.253 322.797 109.841 324.445 109.841L327.876 109.841 327.876 112.793 324.925 112.793C324.307 112.793 323.85 112.976 323.575 113.319 323.278 113.662 323.141 114.142 323.141 114.76L323.141 136.06 319.617 136.06Z" fill="#393939" fill-rule="nonzero" fill-opacity="1" transform="matrix(1.0077 0 0 1 397 288.446)"></path><path d="M330.462 120.114 330.462 117.346 339.888 117.346 339.888 120.114 330.462 120.114ZM337.531 136.06C335.815 136.06 334.557 135.626 333.802 134.779 333.024 133.933 332.635 132.697 332.635 131.096L332.635 111.877 336.136 111.877 336.136 131.119C336.136 131.736 336.296 132.217 336.593 132.56 336.891 132.903 337.348 133.086 337.92 133.086L339.911 133.086 339.911 136.038 337.531 136.038Z" fill="#393939" fill-rule="nonzero" fill-opacity="1" transform="matrix(1.0077 0 0 1 397 288.446)"></path><path d="M361.829 136.335C359.701 136.335 357.756 136.06 355.995 135.511 354.233 134.962 352.631 134.161 351.213 133.086L353.363 130.661C354.53 131.576 355.812 132.263 357.23 132.72 358.648 133.178 360.181 133.406 361.829 133.406 364.162 133.406 365.947 133.018 367.228 132.217 368.509 131.416 369.127 130.295 369.127 128.854L369.127 128.808C369.127 127.755 368.807 126.955 368.166 126.406 367.525 125.856 366.702 125.422 365.695 125.147 364.666 124.873 363.567 124.621 362.378 124.438 361.257 124.255 360.113 124.026 358.969 123.797 357.825 123.569 356.772 123.202 355.812 122.745 354.851 122.264 354.073 121.601 353.501 120.754 352.906 119.885 352.631 118.741 352.631 117.3L352.631 117.277C352.631 114.829 353.547 112.953 355.354 111.603 357.161 110.253 359.724 109.59 363.041 109.59 364.597 109.59 366.13 109.818 367.64 110.253 369.15 110.711 370.614 111.397 372.055 112.312L370.042 114.783C367.686 113.273 365.352 112.518 363.041 112.518 360.845 112.518 359.129 112.93 357.916 113.731 356.704 114.531 356.109 115.675 356.109 117.162L356.109 117.185C356.109 118.215 356.452 119.016 357.139 119.542 357.825 120.091 358.74 120.503 359.861 120.754 360.982 121.029 362.172 121.281 363.43 121.509 364.528 121.692 365.627 121.921 366.725 122.219 367.823 122.493 368.807 122.882 369.699 123.363 370.591 123.866 371.3 124.529 371.827 125.399 372.353 126.245 372.627 127.366 372.627 128.716L372.627 128.739C372.627 131.164 371.689 133.018 369.813 134.344 367.892 135.671 365.238 136.335 361.829 136.335Z" fill="#393939" fill-rule="nonzero" fill-opacity="1" transform="matrix(1.0077 0 0 1 397 288.446)"></path><path d="M384.158 137.593 375.831 117.346 379.4 117.346 386.057 134.161Z" fill="#393939" fill-rule="nonzero" fill-opacity="1" transform="matrix(1.0077 0 0 1 397 288.446)"></path><path d="M379.4 140.865C380.338 140.865 381.047 140.682 381.596 140.339 382.122 139.973 382.603 139.378 383.014 138.486L390.747 117.346 394.339 117.346 385.417 140.453C384.845 141.711 384.113 142.604 383.198 143.107" fill="#393939" fill-rule="nonzero" fill-opacity="1" transform="matrix(1.0077 0 0 1 397 288.446)"></path><path d="M403.766 136.335C402.05 136.335 400.471 136.083 399.007 135.603 397.543 135.122 396.261 134.413 395.163 133.498L397.222 131.233C399.51 132.789 401.752 133.567 403.971 133.567 405.825 133.567 407.243 133.292 408.204 132.766 409.165 132.24 409.668 131.462 409.668 130.455 409.668 129.631 409.371 129.037 408.753 128.693 408.158 128.35 407.358 128.144 406.397 128.03 405.413 127.938 404.383 127.847 403.285 127.755 402.439 127.71 401.592 127.618 400.768 127.481 399.922 127.344 399.167 127.115 398.481 126.794 397.794 126.474 397.245 125.994 396.833 125.376 396.421 124.758 396.216 123.889 396.216 122.836 396.216 120.96 396.925 119.519 398.343 118.535 399.762 117.551 401.844 117.048 404.566 117.048 406.031 117.048 407.449 117.231 408.799 117.62 410.149 117.986 411.407 118.558 412.551 119.29L410.469 121.532C408.479 120.388 406.534 119.816 404.658 119.816 402.965 119.816 401.706 120.068 400.837 120.571 399.968 121.075 399.533 121.807 399.533 122.768 399.533 123.477 399.808 123.98 400.334 124.278 400.86 124.575 401.592 124.781 402.461 124.873 403.354 124.964 404.315 125.033 405.321 125.079 406.191 125.124 407.083 125.216 407.975 125.33 408.868 125.445 409.691 125.696 410.446 126.039 411.201 126.383 411.796 126.909 412.254 127.595 412.711 128.282 412.94 129.243 412.94 130.432 412.94 132.331 412.162 133.773 410.583 134.779 409.028 135.832 406.74 136.335 403.766 136.335Z" fill="#393939" fill-rule="nonzero" fill-opacity="1" transform="matrix(1.0077 0 0 1 397 288.446)"></path><path d="M415.754 120.114 415.754 117.346 425.18 117.346 425.18 120.114 415.754 120.114ZM422.801 136.06C421.085 136.06 419.827 135.626 419.072 134.779 418.294 133.933 417.905 132.697 417.905 131.096L417.905 111.877 421.405 111.877 421.405 131.119C421.405 131.736 421.565 132.217 421.863 132.56 422.16 132.903 422.618 133.086 423.19 133.086L425.18 133.086 425.18 136.038 422.801 136.038Z" fill="#393939" fill-rule="nonzero" fill-opacity="1" transform="matrix(1.0077 0 0 1 397 288.446)"></path><path d="M439.594 136.335C436.688 136.335 434.423 135.603 432.822 134.161 431.22 132.72 430.419 130.638 430.419 127.961L430.419 125.834C430.419 123.042 431.174 120.892 432.73 119.359 434.263 117.826 436.437 117.071 439.251 117.071 441.882 117.071 443.918 117.872 445.382 119.496 446.824 121.121 447.556 123.386 447.556 126.314L447.556 127.984 432.936 127.984 432.936 125.353 444.238 125.353 444.238 125.262C444.17 123.569 443.735 122.242 442.865 121.326 441.996 120.388 440.806 119.931 439.273 119.931 437.535 119.931 436.162 120.434 435.201 121.418 434.24 122.402 433.76 123.82 433.76 125.628L433.76 128.007C433.76 129.723 434.263 131.05 435.293 131.988 436.322 132.903 437.763 133.384 439.617 133.384 441.516 133.384 443.186 132.743 444.65 131.485L446.984 133.544C445.954 134.436 444.787 135.122 443.483 135.603 442.202 136.083 440.898 136.335 439.594 136.335Z" fill="#393939" fill-rule="nonzero" fill-opacity="1" transform="matrix(1.0077 0 0 1 397 288.446)"></path><path d="M453.161 136.06 453.161 117.346 456.661 117.346 456.661 136.06 453.161 136.06ZM465.973 136.06 465.973 124.712C465.973 123.225 465.584 122.059 464.783 121.258 463.983 120.434 462.839 120.022 461.352 120.022 459.864 120.022 458.72 120.388 457.897 121.121 457.096 121.853 456.684 122.882 456.684 124.209L456.272 120.594C456.959 119.382 457.851 118.467 458.949 117.917 460.047 117.346 461.26 117.071 462.61 117.071 464.806 117.071 466.499 117.734 467.689 119.061 468.902 120.388 469.496 122.264 469.496 124.69L469.496 136.06 465.973 136.06ZM478.785 136.06 478.785 124.712C478.785 123.225 478.373 122.059 477.55 121.258 476.726 120.434 475.559 120.022 474.072 120.022 472.608 120.022 471.487 120.411 470.686 121.212 469.885 122.013 469.496 123.134 469.496 124.575L468.467 121.418C469.13 120.022 470.023 118.97 471.167 118.215 472.311 117.46 473.615 117.071 475.125 117.071 477.413 117.071 479.174 117.734 480.433 119.061 481.691 120.388 482.309 122.264 482.309 124.69L482.309 136.06 478.785 136.06Z" fill="#393939" fill-rule="nonzero" fill-opacity="1" transform="matrix(1.0077 0 0 1 397 288.446)"></path></g></g></g></g></svg> 